<?xml version="1.0" standalone="no"?>
<!DOCTYPE svg PUBLIC "-//W3C//DTD SVG 20010904//EN"
 "http://www.w3.org/TR/2001/REC-SVG-20010904/DTD/svg10.dtd">
<svg version="1.0" xmlns="http://www.w3.org/2000/svg"
 width="121.000000pt" height="121.000000pt" viewBox="0 0 121.000000 121.000000"
 preserveAspectRatio="xMidYMid meet">
<metadata>
Created by potrace 1.14, written by Peter Selinger 2001-2017
</metadata>
<g transform="translate(0.000000,121.000000) scale(0.100000,-0.100000)"
fill="#000000" stroke="none">
<path d="M172 916 c-24 -26 -58 -77 -75 -114 -30 -63 -32 -74 -32 -177 0 -103
2 -114 32 -177 83 -175 257 -278 470 -278 60 0 121 6 154 15 144 41 256 131
316 253 37 74 38 79 38 186 0 103 -2 116 -31 176 -34 73 -83 135 -95 123 -17
-18 -12 -50 14 -88 40 -60 58 -122 58 -201 0 -93 -28 -168 -89 -235 -46 -51
-117 -109 -134 -109 -4 0 -8 144 -8 320 l0 320 -70 0 -70 0 0 -345 c0 -300 -2
-345 -15 -345 -13 0 -15 41 -15 310 l0 310 -70 0 -70 0 0 -305 c0 -264 -2
-305 -15 -305 -13 0 -15 32 -15 230 l0 230 -60 0 -60 0 -2 -207 -3 -208 -76
75 c-60 59 -81 88 -98 134 -42 113 -24 251 44 340 28 37 32 48 26 81 l-6 38
-43 -47z"/>
</g>
</svg>
